<svg xmlns="http://www.w3.org/2000/svg" width="375" viewBox="0 0 375 375" height="375" version="1.0"><defs><clipPath id="a"><path d="M 62.4375 37.5 L 312.9375 37.5 L 312.9375 337.5 L 62.4375 337.5 Z M 62.4375 37.5"/></clipPath></defs><g clip-path="url(#a)"><path fill="#183153" d="M 72.515625 67.5 L 222.738281 67.5 L 222.738281 122.5 C 222.738281 125.253906 224.988281 127.5 227.746094 127.5 L 282.828125 127.5 L 282.828125 327.5 L 72.515625 327.5 Z M 92.546875 47.5 L 242.769531 47.5 L 242.769531 70.429688 L 231.289062 58.964844 C 230.859375 58.535156 230.347656 58.222656 229.820312 57.988281 C 229.664062 57.910156 229.507812 57.871094 229.351562 57.8125 C 228.941406 57.675781 228.511719 57.597656 228.078125 57.558594 C 227.960938 57.558594 227.863281 57.5 227.746094 57.5 L 92.546875 57.5 Z M 295.777344 97.5 L 252.785156 97.5 L 252.785156 54.570312 Z M 292.84375 307.5 L 292.84375 122.5 C 292.84375 122.382812 292.785156 122.304688 292.785156 122.1875 C 292.746094 121.738281 292.667969 121.328125 292.53125 120.898438 C 292.472656 120.742188 292.433594 120.585938 292.355469 120.429688 C 292.121094 119.902344 291.808594 119.394531 291.378906 118.964844 L 279.894531 107.5 L 302.859375 107.5 L 302.859375 307.5 Z M 232.753906 74.570312 L 242.769531 84.570312 L 242.769531 102.5 C 242.769531 105.253906 245.019531 107.5 247.777344 107.5 L 265.734375 107.5 L 275.75 117.5 L 232.753906 117.5 Z M 67.507812 337.5 L 287.835938 337.5 C 290.59375 337.5 292.84375 335.253906 292.84375 332.5 L 292.84375 317.5 L 307.867188 317.5 C 310.625 317.5 312.875 315.253906 312.875 312.5 L 312.875 102.5 C 312.875 102.382812 312.816406 102.304688 312.816406 102.1875 C 312.777344 101.738281 312.699219 101.328125 312.5625 100.898438 C 312.503906 100.742188 312.464844 100.585938 312.386719 100.429688 C 312.152344 99.902344 311.839844 99.394531 311.40625 98.964844 L 251.316406 38.964844 C 250.886719 38.535156 250.398438 38.242188 249.851562 37.988281 C 249.695312 37.910156 249.539062 37.871094 249.363281 37.8125 C 248.949219 37.675781 248.539062 37.597656 248.109375 37.578125 C 247.992188 37.558594 247.894531 37.5 247.777344 37.5 L 87.539062 37.5 C 84.78125 37.5 82.53125 39.746094 82.53125 42.5 L 82.53125 57.5 L 67.507812 57.5 C 64.75 57.5 62.5 59.746094 62.5 62.5 L 62.5 332.5 C 62.5 335.253906 64.75 337.5 67.507812 337.5"/></g><path fill="#183153" d="M 177.671875 87.5 C 183.1875 87.5 187.6875 91.992188 187.6875 97.5 C 187.6875 103.007812 183.1875 107.5 177.671875 107.5 C 172.15625 107.5 167.65625 103.007812 167.65625 97.5 C 167.65625 91.992188 172.15625 87.5 177.671875 87.5 Z M 177.671875 117.5 C 188.722656 117.5 197.703125 108.535156 197.703125 97.5 C 197.703125 86.464844 188.722656 77.5 177.671875 77.5 C 166.621094 77.5 157.640625 86.464844 157.640625 97.5 C 157.640625 108.535156 166.621094 117.5 177.671875 117.5"/><path fill="#183153" d="M 212.726562 127.5 L 142.621094 127.5 L 142.621094 137.5 L 212.726562 137.5 L 212.726562 127.5"/><path fill="#183153" d="M 222.738281 157.5 L 272.816406 157.5 L 272.816406 147.5 L 222.738281 147.5 L 222.738281 157.5"/><path fill="#183153" d="M 212.726562 177.5 L 272.816406 177.5 L 272.816406 167.5 L 212.726562 167.5 L 212.726562 177.5"/><path fill="#183153" d="M 152.636719 147.5 L 82.53125 147.5 L 82.53125 157.5 L 152.636719 157.5 L 152.636719 147.5"/><path fill="#183153" d="M 142.621094 167.5 L 82.53125 167.5 L 82.53125 177.5 L 142.621094 177.5 L 142.621094 167.5"/><path fill="#183153" d="M 82.53125 207.5 L 272.816406 207.5 L 272.816406 197.5 L 82.53125 197.5 L 82.53125 207.5"/><path fill="#183153" d="M 82.53125 287.5 L 272.816406 287.5 L 272.816406 277.5 L 82.53125 277.5 L 82.53125 287.5"/><path fill="#183153" d="M 142.621094 237.5 L 82.53125 237.5 L 82.53125 247.5 L 142.621094 247.5 L 142.621094 237.5"/><path fill="#183153" d="M 222.738281 247.5 L 272.816406 247.5 L 272.816406 237.5 L 222.738281 237.5 L 222.738281 247.5"/><path fill="#183153" d="M 132.605469 257.5 L 82.53125 257.5 L 82.53125 267.5 L 132.605469 267.5 L 132.605469 257.5"/><path fill="#183153" d="M 232.753906 267.5 L 272.816406 267.5 L 272.816406 257.5 L 232.753906 257.5 L 232.753906 267.5"/><path fill="#183153" d="M 122.589844 217.5 L 82.53125 217.5 L 82.53125 227.5 L 122.589844 227.5 L 122.589844 217.5"/><path fill="#183153" d="M 232.753906 227.5 L 272.816406 227.5 L 272.816406 217.5 L 232.753906 217.5 L 232.753906 227.5"/><path fill="#183153" d="M 82.53125 307.5 L 107.566406 307.5 L 107.566406 297.5 L 82.53125 297.5 L 82.53125 307.5"/><path fill="#183153" d="M 222.738281 307.5 L 272.816406 307.5 L 272.816406 297.5 L 222.738281 297.5 L 222.738281 307.5"/></svg>