<svg xmlns="http://www.w3.org/2000/svg" width="375" viewBox="0 0 375 375" height="375" version="1.0"><defs><clipPath id="a"><path d="M 40.460938 96 L 168 96 L 168 331.5 L 40.460938 331.5 Z M 40.460938 96"/></clipPath><clipPath id="b"><path d="M 207 96 L 334.460938 96 L 334.460938 331.5 L 207 331.5 Z M 207 96"/></clipPath><clipPath id="c"><path d="M 104 37.5 L 271 37.5 L 271 224 L 104 224 Z M 104 37.5"/></clipPath></defs><g clip-path="url(#a)"><path fill="#183153" d="M 89.460938 308.261719 L 89.460938 331.5 L 99.261719 331.5 L 99.261719 307 C 99.261719 306.175781 99.050781 305.355469 98.648438 304.625 L 54.585938 225.308594 C 51.753906 220.214844 50.261719 214.453125 50.261719 208.636719 L 50.261719 115.898438 C 50.261719 110.503906 54.664062 106.101562 60.058594 106.101562 C 65.457031 106.101562 69.859375 110.503906 69.859375 115.898438 L 69.859375 186.222656 C 63.792969 193.324219 63.792969 203.871094 70.1875 210.894531 L 110.34375 255.050781 L 117.578125 248.449219 L 77.441406 204.292969 C 74.242188 200.769531 74.359375 195.371094 77.726562 192.003906 C 79.488281 190.261719 81.84375 189.378906 84.273438 189.398438 C 86.742188 189.476562 89 190.511719 90.648438 192.347656 L 125.023438 230.53125 C 125.367188 230.914062 126.039062 231.394531 126.496094 231.664062 C 145.964844 242.78125 158.058594 263.628906 158.058594 286.058594 L 158.058594 331.5 L 167.859375 331.5 L 167.859375 282.5 L 167.746094 282.5 C 166.539062 258.210938 153.140625 235.929688 131.78125 223.414062 L 97.941406 185.800781 C 94.476562 181.933594 89.710938 179.753906 84.523438 179.601562 C 82.835938 179.5625 81.230469 179.808594 79.660156 180.175781 L 79.660156 115.898438 C 79.660156 105.085938 70.875 96.300781 60.058594 96.300781 C 49.246094 96.300781 40.460938 105.085938 40.460938 115.898438 L 40.460938 208.636719 C 40.460938 216.121094 42.375 223.527344 46.011719 230.054688 L 89.460938 308.261719"/></g><g clip-path="url(#b)"><path fill="#183153" d="M 314.859375 96.300781 C 304.046875 96.300781 295.261719 105.085938 295.261719 115.898438 L 295.261719 180.175781 C 293.691406 179.808594 292.0625 179.5625 290.398438 179.601562 C 285.210938 179.753906 280.445312 181.933594 276.980469 185.800781 L 243.140625 223.394531 C 221.914062 235.71875 208.382812 258.09375 207.175781 282.5 L 207.058594 282.5 L 207.058594 331.5 L 216.859375 331.5 L 216.859375 286.058594 C 216.859375 263.628906 228.957031 242.78125 248.652344 231.527344 C 249.113281 231.261719 249.535156 230.933594 249.898438 230.53125 L 284.273438 192.347656 C 285.917969 190.511719 288.179688 189.476562 290.648438 189.398438 C 293.175781 189.398438 295.433594 190.261719 297.195312 192.003906 C 300.5625 195.371094 300.675781 200.769531 297.480469 204.292969 L 257.34375 248.449219 L 264.578125 255.050781 L 304.734375 210.894531 C 311.128906 203.871094 311.128906 193.324219 305.058594 186.222656 L 305.058594 115.898438 C 305.058594 110.503906 309.460938 106.101562 314.859375 106.101562 C 320.257812 106.101562 324.660156 110.503906 324.660156 115.898438 L 324.660156 208.121094 C 324.660156 214.246094 323.015625 220.253906 319.855469 225.632812 L 276.273438 304.625 C 275.871094 305.355469 275.660156 306.175781 275.660156 307 L 275.660156 331.5 L 285.460938 331.5 L 285.460938 308.261719 L 328.375 230.496094 C 332.355469 223.71875 334.460938 215.984375 334.460938 208.121094 L 334.460938 115.898438 C 334.460938 105.085938 325.675781 96.300781 314.859375 96.300781"/></g><g clip-path="url(#c)"><path fill="#183153" d="M 260.960938 170.605469 L 192.359375 210.300781 L 192.359375 133.472656 L 260.960938 94.882812 Z M 187.460938 124.972656 L 156.070312 107.324219 L 224.476562 68.851562 L 255.867188 86.5 Z M 182.558594 210.300781 L 113.960938 170.605469 L 113.960938 94.882812 L 182.558594 133.472656 Z M 187.460938 48.027344 L 214.488281 63.226562 L 146.078125 101.699219 L 119.050781 86.5 Z M 270.761719 173.4375 L 270.761719 86.5 C 270.761719 86.058594 270.703125 85.636719 270.589844 85.21875 C 270.550781 85.082031 270.472656 84.949219 270.414062 84.816406 C 270.320312 84.546875 270.242188 84.28125 270.089844 84.050781 C 270.015625 83.898438 269.898438 83.800781 269.804688 83.667969 C 269.648438 83.457031 269.515625 83.226562 269.324219 83.035156 C 269.210938 82.941406 269.074219 82.863281 268.960938 82.75 C 268.75 82.59375 268.558594 82.402344 268.328125 82.269531 C 268.328125 82.269531 268.308594 82.269531 268.292969 82.25 C 268.273438 82.25 268.273438 82.230469 268.253906 82.230469 L 189.851562 38.132812 C 188.359375 37.289062 186.5625 37.289062 185.066406 38.132812 L 106.667969 82.230469 C 106.648438 82.230469 106.648438 82.25 106.628906 82.25 C 106.628906 82.269531 106.589844 82.269531 106.589844 82.269531 C 106.363281 82.402344 106.171875 82.59375 105.960938 82.75 C 105.84375 82.863281 105.710938 82.941406 105.597656 83.035156 C 105.40625 83.226562 105.269531 83.457031 105.117188 83.667969 C 105.023438 83.800781 104.90625 83.898438 104.832031 84.050781 C 104.675781 84.28125 104.601562 84.546875 104.503906 84.816406 C 104.449219 84.949219 104.371094 85.082031 104.332031 85.21875 C 104.21875 85.636719 104.160156 86.058594 104.160156 86.5 L 104.160156 173.4375 C 104.160156 175.199219 105.097656 176.804688 106.609375 177.6875 L 185.011719 223.03125 C 185.011719 223.03125 185.011719 223.050781 185.011719 223.050781 C 185.296875 223.222656 185.621094 223.316406 185.949219 223.433594 C 186.023438 223.449219 186.101562 223.507812 186.195312 223.546875 C 186.617188 223.640625 187.039062 223.699219 187.460938 223.699219 C 187.882812 223.699219 188.300781 223.640625 188.722656 223.546875 C 188.820312 223.507812 188.894531 223.449219 188.972656 223.433594 C 189.296875 223.316406 189.625 223.222656 189.910156 223.050781 C 189.910156 223.050781 189.910156 223.03125 189.910156 223.03125 L 268.308594 177.6875 C 269.824219 176.804688 270.761719 175.199219 270.761719 173.4375"/></g><path fill="#183153" d="M 251.160156 160 L 241.359375 160 L 241.359375 169.800781 L 251.160156 169.800781 L 251.160156 160"/><path fill="#183153" d="M 231.558594 169.800781 L 221.761719 169.800781 L 221.761719 179.601562 L 231.558594 179.601562 L 231.558594 169.800781"/><path fill="#183153" d="M 211.960938 179.601562 L 202.160156 179.601562 L 202.160156 189.398438 L 211.960938 189.398438 L 211.960938 179.601562"/></svg>