<svg xmlns="http://www.w3.org/2000/svg" width="375" viewBox="0 0 375 375" height="375" version="1.0"><defs><clipPath id="a"><path d="M 37.5 37.5 L 337.5 37.5 L 337.5 337.5 L 37.5 337.5 Z M 37.5 37.5"/></clipPath></defs><path fill="#183153" d="M 308.46875 105.242188 L 318.144531 105.242188 L 318.144531 95.566406 L 308.46875 95.566406 L 308.46875 105.242188"/><path fill="#183153" d="M 289.113281 105.242188 L 298.789062 105.242188 L 298.789062 95.566406 L 289.113281 95.566406 L 289.113281 105.242188"/><path fill="#183153" d="M 269.757812 105.242188 L 279.433594 105.242188 L 279.433594 95.566406 L 269.757812 95.566406 L 269.757812 105.242188"/><path fill="#183153" d="M 260.082031 95.566406 L 211.695312 95.566406 L 211.695312 105.242188 L 260.082031 105.242188 L 260.082031 95.566406"/><path fill="#183153" d="M 318.144531 76.210938 L 211.695312 76.210938 L 211.695312 85.886719 L 318.144531 85.886719 L 318.144531 76.210938"/><path fill="#183153" d="M 318.144531 56.855469 L 211.695312 56.855469 L 211.695312 66.53125 L 318.144531 66.53125 L 318.144531 56.855469"/><g clip-path="url(#a)"><path fill="#183153" d="M 327.824219 114.917969 L 279.433594 114.917969 L 279.433594 142.195312 C 279.433594 143.6875 277.28125 144.460938 276.335938 143.328125 L 252.671875 114.917969 L 202.015625 114.917969 L 202.015625 47.175781 L 327.824219 47.175781 Z M 231.046875 163.304688 C 231.046875 211.335938 191.980469 250.402344 143.953125 250.402344 C 95.921875 250.402344 56.855469 211.335938 56.855469 163.304688 C 56.855469 115.277344 95.921875 76.210938 143.953125 76.210938 C 161.339844 76.210938 177.992188 81.332031 192.339844 90.953125 L 192.339844 103.011719 C 178.691406 92.085938 161.605469 85.886719 143.953125 85.886719 C 101.253906 85.886719 66.53125 120.609375 66.53125 163.304688 C 66.53125 206.003906 101.253906 240.726562 143.953125 240.726562 C 186.648438 240.726562 221.371094 206.003906 221.371094 163.304688 C 221.371094 149.527344 217.761719 136.316406 210.957031 124.597656 L 221.957031 124.597656 C 227.871094 136.5625 231.046875 149.867188 231.046875 163.304688 Z M 97.398438 267.148438 L 79.800781 256.582031 L 87.949219 242.085938 C 93.484375 246.035156 99.402344 249.4375 105.714844 252.160156 Z M 65.417969 324.722656 C 63.753906 327.671875 59.613281 328.671875 56.796875 326.820312 L 49.863281 322.171875 C 48.179688 321.054688 47.175781 319.183594 47.175781 317.179688 L 47.175781 316.140625 C 47.175781 315.121094 47.441406 314.101562 47.953125 313.191406 L 75.058594 265.03125 L 92.691406 275.617188 Z M 161.832031 157.105469 C 168.597656 151.777344 172.984375 143.535156 172.984375 134.273438 C 172.984375 118.265625 159.960938 105.242188 143.953125 105.242188 C 127.941406 105.242188 114.917969 118.265625 114.917969 134.273438 C 114.917969 143.535156 119.304688 151.777344 126.070312 157.105469 C 108.226562 164.234375 95.566406 181.660156 95.566406 202.015625 L 95.566406 210.636719 C 83.617188 198.40625 76.210938 181.714844 76.210938 163.304688 C 76.210938 125.957031 106.601562 95.566406 143.953125 95.566406 C 162.191406 95.566406 179.75 103.066406 192.472656 116.109375 C 192.925781 119.910156 195.589844 123.007812 199.144531 124.125 C 207.328125 135.617188 211.695312 149.113281 211.695312 163.304688 C 211.695312 181.714844 204.285156 198.40625 192.339844 210.636719 L 192.339844 202.015625 C 192.339844 181.660156 179.675781 164.234375 161.832031 157.105469 Z M 182.660156 218.820312 C 171.679688 226.492188 158.335938 231.046875 143.953125 231.046875 C 129.566406 231.046875 116.222656 226.492188 105.242188 218.820312 L 105.242188 202.015625 C 105.242188 180.675781 122.613281 163.304688 143.953125 163.304688 C 165.292969 163.304688 182.660156 180.675781 182.660156 202.015625 Z M 124.597656 134.273438 C 124.597656 123.59375 133.273438 114.917969 143.953125 114.917969 C 154.628906 114.917969 163.304688 123.59375 163.304688 134.273438 C 163.304688 144.953125 154.628906 153.628906 143.953125 153.628906 C 133.273438 153.628906 124.597656 144.953125 124.597656 134.273438 Z M 327.824219 37.5 L 202.015625 37.5 C 196.6875 37.5 192.339844 41.847656 192.339844 47.175781 L 192.339844 79.535156 C 177.671875 71.03125 161.132812 66.53125 143.953125 66.53125 C 90.59375 66.53125 47.175781 109.949219 47.175781 163.304688 C 47.175781 192.28125 60.03125 218.253906 80.273438 236 L 39.523438 308.46875 C 38.199219 310.8125 37.5 313.457031 37.5 316.140625 L 37.5 317.179688 C 37.5 322.4375 40.109375 327.3125 44.492188 330.242188 L 51.429688 334.855469 C 54.019531 336.59375 57.042969 337.5 60.144531 337.5 C 65.832031 337.5 71.105469 334.398438 73.867188 329.429688 L 114.882812 255.601562 C 124.066406 258.492188 133.820312 260.082031 143.953125 260.082031 C 197.308594 260.082031 240.726562 216.664062 240.726562 163.304688 C 240.726562 149.960938 237.910156 136.75 232.617188 124.597656 L 248.136719 124.597656 L 268.90625 149.507812 C 271.082031 152.136719 274.277344 153.628906 277.675781 153.628906 C 283.992188 153.628906 289.113281 148.507812 289.113281 142.195312 L 289.113281 124.597656 L 327.824219 124.597656 C 333.152344 124.597656 337.5 120.25 337.5 114.917969 L 337.5 47.175781 C 337.5 41.847656 333.152344 37.5 327.824219 37.5"/></g><path fill="#183153" d="M 298.789062 202.015625 L 298.789062 206.855469 C 298.789062 208.554688 298.753906 210.277344 298.640625 211.976562 C 296.3125 255.28125 271.800781 283.933594 228.816406 294.632812 C 256.507812 276.46875 273.347656 252.445312 278.035156 224.074219 C 278.964844 218.421875 279.433594 212.621094 279.433594 206.855469 L 279.433594 202.015625 L 265.128906 202.015625 L 289.113281 171.1875 L 313.097656 202.015625 Z M 245.355469 211.695312 L 269.625 211.695312 C 269.457031 215.324219 269.058594 218.933594 268.472656 222.503906 C 263.027344 255.640625 240.007812 281.457031 200.050781 299.207031 L 174.816406 310.433594 L 202.355469 308.449219 C 266.660156 303.855469 305.273438 268.886719 308.316406 212.507812 C 308.335938 212.222656 308.335938 211.957031 308.355469 211.695312 L 332.871094 211.695312 L 289.113281 155.425781 L 245.355469 211.695312"/></svg>