<svg xmlns="http://www.w3.org/2000/svg" width="375" viewBox="0 0 375 375" height="375" version="1.0"><defs><clipPath id="a"><path d="M 37.5 73 L 337.5 73 L 337.5 302 L 37.5 302 Z M 37.5 73"/></clipPath></defs><g clip-path="url(#a)"><path fill="#183153" d="M 158.148438 279.332031 L 158.148438 298.296875 C 158.148438 300.105469 156.683594 301.570312 154.902344 301.570312 C 153.089844 301.570312 151.625 300.105469 151.625 298.296875 L 151.625 279.332031 C 151.597656 272.859375 146.832031 267.375 140.4375 266.441406 L 122.621094 263.886719 C 113.75 262.605469 104.75 262.605469 95.878906 263.886719 L 78.035156 266.441406 C 71.644531 267.375 66.875 272.859375 66.851562 279.332031 L 66.851562 298.296875 C 66.851562 300.105469 65.386719 301.570312 63.574219 301.570312 C 61.789062 301.570312 60.324219 300.105469 60.324219 298.296875 L 60.324219 279.332031 C 60.378906 269.609375 67.515625 261.382812 77.128906 259.96875 L 94.949219 257.441406 C 104.429688 256.082031 114.042969 256.082031 123.527344 257.441406 L 141.34375 259.96875 C 150.984375 261.382812 158.125 269.609375 158.148438 279.332031 Z M 128.800781 220.046875 L 128.800781 226.570312 C 128.800781 237.382812 120.039062 246.121094 109.222656 246.121094 C 98.4375 246.121094 89.675781 237.359375 89.675781 226.570312 L 89.675781 220.046875 C 89.675781 209.234375 98.4375 200.496094 109.25 200.496094 C 120.039062 200.496094 128.800781 209.257812 128.800781 220.046875 Z M 83.148438 220.046875 L 83.148438 226.570312 C 83.148438 240.980469 94.84375 252.644531 109.25 252.644531 C 123.660156 252.644531 135.324219 240.980469 135.324219 226.570312 L 135.324219 220.046875 C 135.324219 205.636719 123.660156 193.972656 109.25 193.972656 C 94.84375 193.972656 83.148438 205.636719 83.148438 220.046875 Z M 337.5 96.121094 L 337.5 200.46875 C 337.472656 213.09375 327.273438 223.296875 314.675781 223.296875 L 208.113281 223.296875 L 163.316406 255.308594 C 161.851562 256.347656 159.800781 256.027344 158.761719 254.535156 C 158.363281 254.003906 158.148438 253.339844 158.148438 252.644531 L 158.148438 223.296875 L 145.097656 223.296875 C 143.316406 223.296875 141.851562 221.855469 141.851562 220.046875 C 141.851562 218.234375 143.316406 216.796875 145.097656 216.796875 L 161.398438 216.796875 C 163.210938 216.796875 164.675781 218.234375 164.675781 220.046875 L 164.675781 246.308594 L 205.183594 217.382812 C 205.71875 217.011719 206.382812 216.796875 207.050781 216.796875 L 314.675781 216.796875 C 323.675781 216.769531 330.976562 209.472656 330.976562 200.46875 L 330.976562 96.121094 C 330.976562 87.117188 323.675781 79.847656 314.675781 79.820312 L 60.324219 79.820312 C 51.324219 79.847656 44.023438 87.117188 44.023438 96.121094 L 44.023438 200.46875 C 44.023438 209.472656 51.324219 216.769531 60.324219 216.796875 L 73.375 216.796875 C 75.160156 216.796875 76.625 218.234375 76.625 220.046875 C 76.625 221.855469 75.160156 223.296875 73.375 223.296875 L 60.324219 223.296875 C 47.726562 223.296875 37.527344 213.09375 37.5 200.46875 L 37.5 96.121094 C 37.527344 83.523438 47.726562 73.320312 60.324219 73.296875 L 314.675781 73.296875 C 327.273438 73.320312 337.472656 83.523438 337.5 96.121094 Z M 145.5 151.4375 C 144.726562 152.183594 144.378906 153.277344 144.566406 154.339844 L 145.898438 162.117188 L 138.921875 158.441406 C 137.960938 157.9375 136.816406 157.9375 135.882812 158.441406 L 128.878906 162.117188 L 130.210938 154.339844 C 130.398438 153.277344 130.050781 152.183594 129.277344 151.4375 L 123.632812 145.925781 L 131.4375 144.804688 C 132.5 144.648438 133.433594 143.980469 133.914062 143.023438 L 137.402344 135.9375 L 140.890625 143.023438 C 141.371094 143.980469 142.277344 144.648438 143.339844 144.804688 L 151.144531 145.925781 Z M 161.265625 142.648438 C 160.894531 141.476562 159.855469 140.597656 158.628906 140.4375 L 145.976562 138.601562 L 140.304688 127.121094 C 139.375 125.496094 137.269531 124.964844 135.671875 125.921875 C 135.164062 126.214844 134.765625 126.640625 134.472656 127.121094 L 128.800781 138.601562 L 116.148438 140.4375 C 114.363281 140.679688 113.140625 142.355469 113.40625 144.140625 C 113.511719 144.832031 113.832031 145.5 114.335938 146.003906 L 123.5 154.925781 L 121.34375 167.523438 C 121.050781 169.308594 122.222656 170.988281 124.003906 171.28125 C 124.699219 171.414062 125.445312 171.308594 126.082031 170.960938 L 137.402344 165.019531 L 148.722656 170.960938 C 150.292969 171.8125 152.289062 171.171875 153.117188 169.601562 C 153.460938 168.964844 153.570312 168.242188 153.4375 167.523438 L 151.277344 154.925781 L 160.441406 146.003906 C 161.320312 145.125 161.640625 143.820312 161.265625 142.648438 Z M 81.339844 144.804688 C 82.402344 144.648438 83.308594 143.980469 83.789062 143.023438 L 87.277344 135.9375 L 90.765625 143.023438 C 91.246094 143.980469 92.179688 144.648438 93.242188 144.804688 L 101.046875 145.925781 L 95.402344 151.4375 C 94.628906 152.183594 94.28125 153.277344 94.46875 154.339844 L 95.800781 162.117188 L 88.796875 158.441406 C 87.863281 157.9375 86.71875 157.9375 85.761719 158.441406 L 78.78125 162.117188 L 80.113281 154.339844 C 80.300781 153.277344 79.953125 152.183594 79.179688 151.4375 L 73.535156 145.925781 Z M 72.523438 170.722656 C 73.535156 171.441406 74.867188 171.546875 75.957031 170.960938 L 87.277344 165.019531 L 98.597656 170.960938 C 100.195312 171.8125 102.167969 171.199219 103.019531 169.601562 C 103.339844 168.964844 103.472656 168.242188 103.339844 167.523438 L 101.179688 154.925781 L 110.34375 146.003906 C 111.621094 144.726562 111.648438 142.675781 110.394531 141.371094 C 109.890625 140.863281 109.25 140.546875 108.53125 140.4375 L 95.878906 138.601562 L 90.207031 127.121094 C 89.25 125.496094 87.171875 124.964844 85.574219 125.921875 C 85.066406 126.214844 84.667969 126.640625 84.375 127.121094 L 78.703125 138.601562 L 66.050781 140.4375 C 64.265625 140.679688 63.042969 142.355469 63.28125 144.140625 C 63.386719 144.832031 63.734375 145.5 64.238281 146.003906 L 73.402344 154.925781 L 71.246094 167.523438 C 71.03125 168.75 71.539062 169.976562 72.523438 170.722656 Z M 295.820312 151.4375 C 295.074219 152.183594 294.699219 153.277344 294.886719 154.339844 L 296.21875 162.117188 L 289.214844 158.441406 C 288.28125 157.9375 287.136719 157.9375 286.175781 158.441406 L 279.199219 162.117188 L 280.558594 154.339844 C 280.71875 153.277344 280.371094 152.183594 279.597656 151.4375 L 273.953125 145.925781 L 281.757812 144.804688 C 282.820312 144.648438 283.726562 143.980469 284.207031 143.023438 L 287.722656 135.9375 L 291.210938 143.023438 C 291.691406 143.980469 292.597656 144.648438 293.660156 144.804688 L 301.492188 145.925781 Z M 311.585938 142.648438 C 311.210938 141.476562 310.175781 140.597656 308.949219 140.4375 L 296.296875 138.601562 L 290.652344 127.121094 C 289.667969 125.496094 287.589844 124.964844 285.992188 125.921875 C 285.484375 126.214844 285.085938 126.640625 284.792969 127.121094 L 279.144531 138.601562 L 266.46875 140.4375 C 264.683594 140.679688 263.457031 142.355469 263.699219 144.140625 C 263.832031 144.832031 264.152344 145.5 264.683594 146.003906 L 273.820312 154.925781 L 271.660156 167.523438 C 271.34375 169.308594 272.539062 170.988281 274.324219 171.28125 C 275.042969 171.414062 275.761719 171.308594 276.375 170.960938 L 287.722656 165.019531 L 299.015625 170.960938 C 300.640625 171.8125 302.609375 171.171875 303.4375 169.601562 C 303.753906 168.964844 303.886719 168.242188 303.753906 167.523438 L 301.597656 154.925781 L 310.761719 146.003906 C 311.664062 145.125 311.984375 143.820312 311.585938 142.648438 Z M 245.722656 151.4375 C 244.949219 152.183594 244.601562 153.277344 244.789062 154.339844 L 246.121094 162.117188 L 239.140625 158.441406 C 238.15625 157.9375 237.039062 157.9375 236.105469 158.441406 L 229.101562 162.117188 L 230.433594 154.339844 C 230.621094 153.277344 230.273438 152.183594 229.5 151.4375 L 223.855469 145.925781 L 231.660156 144.804688 C 232.722656 144.648438 233.628906 143.980469 234.109375 143.023438 L 237.597656 135.9375 L 241.085938 143.023438 C 241.566406 143.980469 242.5 144.648438 243.5625 144.804688 L 251.367188 145.925781 Z M 261.460938 142.648438 C 261.089844 141.476562 260.078125 140.597656 258.851562 140.4375 L 246.171875 138.601562 L 240.527344 127.121094 C 239.726562 125.496094 237.785156 124.859375 236.160156 125.628906 C 235.519531 125.949219 235.015625 126.484375 234.667969 127.121094 L 229.023438 138.601562 L 216.371094 140.4375 C 214.585938 140.679688 213.335938 142.355469 213.601562 144.140625 C 213.707031 144.832031 214.054688 145.5 214.558594 146.003906 L 223.722656 154.925781 L 221.539062 167.523438 C 221.246094 169.308594 222.441406 170.988281 224.226562 171.28125 C 224.921875 171.414062 225.640625 171.308594 226.277344 170.960938 L 237.597656 165.019531 L 248.945312 170.960938 C 250.515625 171.8125 252.484375 171.171875 253.339844 169.601562 C 253.65625 168.964844 253.765625 168.242188 253.65625 167.523438 L 251.5 154.925781 L 260.636719 146.003906 C 261.542969 145.125 261.859375 143.820312 261.460938 142.648438 Z M 195.625 151.4375 C 194.851562 152.183594 194.503906 153.277344 194.664062 154.339844 L 195.996094 162.117188 L 189.019531 158.441406 C 188.058594 157.9375 186.941406 157.9375 185.980469 158.441406 L 179.003906 162.117188 L 180.335938 154.339844 C 180.496094 153.277344 180.148438 152.183594 179.375 151.4375 L 173.730469 145.925781 L 181.5625 144.804688 C 182.597656 144.648438 183.53125 143.980469 184.011719 143.023438 L 187.5 135.9375 L 190.988281 143.023438 C 191.46875 143.980469 192.402344 144.648438 193.4375 144.804688 L 201.269531 145.925781 Z M 211.390625 142.648438 C 210.992188 141.476562 209.953125 140.597656 208.726562 140.4375 L 196.074219 138.601562 L 190.429688 127.121094 C 189.472656 125.496094 187.394531 124.964844 185.769531 125.921875 C 185.289062 126.214844 184.863281 126.640625 184.570312 127.121094 L 178.925781 138.601562 L 166.273438 140.4375 C 164.488281 140.679688 163.238281 142.355469 163.503906 144.140625 C 163.609375 144.832031 163.929688 145.5 164.460938 146.003906 L 173.625 154.925781 L 171.441406 167.523438 C 171.148438 169.308594 172.34375 170.988281 174.101562 171.28125 C 174.824219 171.414062 175.542969 171.308594 176.179688 170.960938 L 187.5 165.019531 L 198.820312 170.960938 C 200.417969 171.8125 202.386719 171.199219 203.214844 169.601562 C 203.558594 168.964844 203.667969 168.242188 203.535156 167.523438 L 201.375 154.925781 L 210.539062 146.003906 C 211.445312 145.125 211.761719 143.820312 211.390625 142.648438"/></g></svg>