<svg xmlns="http://www.w3.org/2000/svg" width="375" viewBox="0 0 375 375" height="375" version="1.0"><defs><clipPath id="a"><path d="M 41 43 L 334 43 L 334 335.8125 L 41 335.8125 Z M 41 43"/></clipPath></defs><path fill="#183153" d="M 138.074219 228.257812 C 139.734375 228.257812 141.398438 227.625 142.664062 226.355469 L 152.136719 216.867188 C 154.671875 214.332031 154.671875 210.214844 152.136719 207.679688 C 149.605469 205.140625 145.492188 205.140625 142.960938 207.679688 L 133.484375 217.164062 C 130.949219 219.703125 130.949219 223.816406 133.484375 226.355469 C 134.75 227.625 136.414062 228.257812 138.074219 228.257812 Z M 138.074219 228.257812"/><path fill="#183153" d="M 127.992188 231.855469 C 125.457031 229.316406 121.347656 229.316406 118.8125 231.855469 L 66.03125 284.707031 C 63.496094 287.242188 63.496094 291.355469 66.03125 293.894531 C 67.296875 295.164062 68.957031 295.796875 70.621094 295.796875 C 72.28125 295.796875 73.941406 295.164062 75.207031 293.894531 L 127.992188 241.042969 C 130.527344 238.507812 130.527344 234.390625 127.992188 231.855469 Z M 127.992188 231.855469"/><path fill="#183153" d="M 160.351562 225.09375 L 114.476562 271.03125 C 111.9375 273.566406 111.9375 277.683594 114.476562 280.21875 C 115.742188 281.488281 117.402344 282.121094 119.0625 282.121094 C 120.722656 282.121094 122.386719 281.488281 123.652344 280.21875 L 169.53125 234.28125 C 172.066406 231.746094 172.066406 227.628906 169.53125 225.09375 C 167 222.554688 162.886719 222.554688 160.351562 225.09375 Z M 160.351562 225.09375"/><path fill="#183153" d="M 97.765625 287.757812 L 83.421875 302.121094 C 80.890625 304.660156 80.890625 308.773438 83.425781 311.3125 C 84.691406 312.578125 86.351562 313.214844 88.011719 313.214844 C 89.675781 313.214844 91.335938 312.578125 92.605469 311.308594 L 106.945312 296.949219 C 109.480469 294.414062 109.480469 290.296875 106.945312 287.761719 C 104.410156 285.222656 100.304688 285.222656 97.765625 287.757812 Z M 97.765625 287.757812"/><g clip-path="url(#a)"><path fill="#183153" d="M 90.476562 103.585938 C 86.855469 107.203125 80.964844 107.199219 77.339844 103.570312 L 55.25 81.449219 C 55.199219 81.402344 55.140625 81.367188 55.089844 81.320312 C 54.917969 81.15625 54.726562 81.011719 54.535156 80.867188 C 54.375 80.746094 54.21875 80.625 54.050781 80.523438 C 53.875 80.414062 53.691406 80.324219 53.503906 80.234375 C 53.292969 80.132812 53.085938 80.03125 52.867188 79.953125 C 52.800781 79.929688 52.742188 79.890625 52.675781 79.867188 C 52.554688 79.828125 52.433594 79.820312 52.316406 79.789062 C 52.089844 79.726562 51.863281 79.671875 51.628906 79.636719 C 51.429688 79.609375 51.238281 79.59375 51.042969 79.582031 C 50.816406 79.570312 50.597656 79.5625 50.375 79.574219 C 50.179688 79.582031 49.992188 79.601562 49.800781 79.628906 C 49.570312 79.660156 49.347656 79.699219 49.121094 79.753906 C 48.945312 79.796875 48.777344 79.847656 48.605469 79.90625 C 48.378906 79.984375 48.15625 80.066406 47.9375 80.167969 C 47.773438 80.246094 47.617188 80.332031 47.460938 80.421875 C 47.257812 80.535156 47.0625 80.65625 46.875 80.792969 C 46.703125 80.917969 46.542969 81.054688 46.382812 81.195312 C 46.285156 81.285156 46.167969 81.351562 46.070312 81.449219 C 46.015625 81.503906 45.980469 81.566406 45.929688 81.625 C 45.777344 81.785156 45.644531 81.960938 45.507812 82.140625 C 45.378906 82.3125 45.25 82.480469 45.140625 82.65625 C 45.035156 82.828125 44.949219 83.007812 44.863281 83.1875 C 44.757812 83.402344 44.65625 83.613281 44.578125 83.832031 C 44.550781 83.902344 44.511719 83.960938 44.492188 84.027344 C 37.597656 105.179688 43.066406 128.085938 58.773438 143.808594 C 70.011719 155.066406 84.980469 161.042969 100.246094 161.042969 C 106.261719 161.042969 112.316406 160.0625 118.21875 158.164062 L 142.160156 182.136719 C 138.078125 182.597656 134.113281 184.308594 130.988281 187.433594 L 52.160156 266.367188 C 41.332031 277.203125 41.332031 294.84375 52.160156 305.679688 L 71.652344 325.195312 C 77.0625 330.617188 84.171875 333.328125 91.285156 333.328125 C 98.394531 333.328125 105.503906 330.617188 110.917969 325.195312 L 189.746094 246.269531 C 192.867188 243.140625 194.578125 239.171875 195.039062 235.082031 L 218.941406 259.015625 C 212.214844 279.914062 217.632812 302.878906 233.316406 318.578125 C 244.53125 329.808594 259.402344 335.8125 274.6875 335.8125 C 280.800781 335.8125 286.984375 334.851562 293.023438 332.878906 C 293.09375 332.855469 293.152344 332.816406 293.21875 332.792969 C 293.433594 332.710938 293.640625 332.613281 293.851562 332.511719 C 294.039062 332.421875 294.222656 332.332031 294.398438 332.222656 C 294.566406 332.117188 294.722656 332 294.882812 331.878906 C 295.078125 331.734375 295.265625 331.585938 295.441406 331.421875 C 295.492188 331.375 295.550781 331.34375 295.597656 331.292969 C 295.683594 331.207031 295.742188 331.109375 295.824219 331.019531 C 295.984375 330.839844 296.136719 330.660156 296.273438 330.464844 C 296.394531 330.300781 296.496094 330.128906 296.597656 329.953125 C 296.707031 329.769531 296.808594 329.582031 296.894531 329.390625 C 296.984375 329.199219 297.054688 329.003906 297.125 328.804688 C 297.191406 328.609375 297.253906 328.410156 297.304688 328.203125 C 297.351562 328.003906 297.382812 327.804688 297.414062 327.601562 C 297.441406 327.390625 297.464844 327.179688 297.472656 326.960938 C 297.484375 326.753906 297.476562 326.550781 297.464844 326.34375 C 297.453125 326.136719 297.4375 325.929688 297.40625 325.71875 C 297.371094 325.492188 297.320312 325.273438 297.257812 325.046875 C 297.226562 324.925781 297.21875 324.804688 297.179688 324.683594 C 297.15625 324.613281 297.117188 324.554688 297.09375 324.488281 C 297.011719 324.273438 296.914062 324.0625 296.8125 323.855469 C 296.722656 323.667969 296.632812 323.480469 296.523438 323.304688 C 296.421875 323.136719 296.300781 322.980469 296.179688 322.820312 C 296.035156 322.628906 295.890625 322.4375 295.726562 322.265625 C 295.679688 322.214844 295.648438 322.15625 295.597656 322.105469 L 273.503906 299.988281 C 269.878906 296.355469 269.871094 290.457031 273.488281 286.835938 L 284.566406 275.742188 C 288.183594 272.121094 294.074219 272.128906 297.703125 275.757812 L 319.792969 297.878906 C 319.84375 297.929688 319.898438 297.960938 319.949219 298.007812 C 320.121094 298.167969 320.308594 298.3125 320.5 298.457031 C 320.664062 298.578125 320.820312 298.703125 320.992188 298.808594 C 321.164062 298.914062 321.34375 299 321.527344 299.089844 C 321.738281 299.195312 321.953125 299.296875 322.175781 299.378906 C 322.238281 299.402344 322.296875 299.4375 322.359375 299.460938 C 322.425781 299.480469 322.496094 299.472656 322.5625 299.492188 C 323.152344 299.664062 323.753906 299.777344 324.363281 299.78125 C 324.371094 299.78125 324.378906 299.785156 324.382812 299.785156 C 324.394531 299.785156 324.402344 299.777344 324.414062 299.777344 C 325.003906 299.777344 325.589844 299.667969 326.164062 299.503906 C 326.28125 299.46875 326.398438 299.441406 326.515625 299.398438 C 327.058594 299.210938 327.582031 298.957031 328.070312 298.617188 C 328.160156 298.554688 328.230469 298.480469 328.316406 298.414062 C 328.539062 298.242188 328.769531 298.082031 328.972656 297.878906 C 329.136719 297.710938 329.265625 297.523438 329.410156 297.34375 C 329.492188 297.242188 329.578125 297.148438 329.65625 297.039062 C 330.015625 296.539062 330.289062 296 330.484375 295.433594 C 330.5 295.386719 330.535156 295.355469 330.550781 295.308594 C 337.46875 274.171875 331.996094 251.261719 316.273438 235.515625 C 300.59375 219.816406 277.667969 214.394531 256.808594 221.128906 L 217.839844 182.113281 L 288.632812 111.226562 L 303.246094 112.25 C 303.398438 112.261719 303.550781 112.265625 303.699219 112.265625 C 306.046875 112.265625 308.222656 110.996094 309.375 108.921875 L 332.820312 66.613281 C 334.222656 64.078125 333.78125 60.917969 331.734375 58.867188 L 330.160156 57.292969 C 330.160156 57.289062 330.15625 57.285156 330.15625 57.285156 L 319.734375 46.851562 C 319.730469 46.847656 319.730469 46.847656 319.726562 46.84375 L 318.152344 45.269531 C 316.105469 43.21875 312.949219 42.773438 310.417969 44.183594 L 268.164062 67.65625 C 265.957031 68.882812 264.660156 71.277344 264.835938 73.792969 L 265.859375 88.421875 L 195.066406 159.308594 L 156.097656 120.289062 C 162.824219 99.402344 157.40625 76.445312 141.726562 60.75 C 126.003906 45.003906 103.117188 39.523438 82.011719 46.453125 C 81.945312 46.476562 81.890625 46.511719 81.828125 46.535156 C 81.605469 46.617188 81.390625 46.71875 81.175781 46.824219 C 80.996094 46.914062 80.8125 47 80.644531 47.105469 C 80.472656 47.210938 80.3125 47.332031 80.152344 47.453125 C 79.960938 47.597656 79.773438 47.742188 79.601562 47.90625 C 79.550781 47.953125 79.492188 47.984375 79.445312 48.035156 C 79.359375 48.121094 79.296875 48.222656 79.21875 48.3125 C 79.058594 48.492188 78.90625 48.671875 78.769531 48.863281 C 78.648438 49.03125 78.542969 49.207031 78.441406 49.382812 C 78.335938 49.5625 78.234375 49.746094 78.148438 49.941406 C 78.058594 50.132812 77.984375 50.332031 77.917969 50.53125 C 77.847656 50.726562 77.789062 50.921875 77.742188 51.125 C 77.691406 51.328125 77.660156 51.53125 77.628906 51.734375 C 77.601562 51.945312 77.578125 52.152344 77.570312 52.367188 C 77.5625 52.578125 77.566406 52.785156 77.578125 52.996094 C 77.589844 53.203125 77.605469 53.402344 77.636719 53.609375 C 77.671875 53.839844 77.726562 54.066406 77.789062 54.296875 C 77.820312 54.414062 77.828125 54.535156 77.867188 54.65625 C 77.890625 54.722656 77.925781 54.777344 77.953125 54.84375 C 78.03125 55.0625 78.128906 55.269531 78.230469 55.480469 C 78.324219 55.667969 78.414062 55.855469 78.523438 56.03125 C 78.625 56.195312 78.738281 56.347656 78.855469 56.5 C 79.003906 56.703125 79.15625 56.898438 79.324219 57.078125 C 79.371094 57.125 79.398438 57.179688 79.445312 57.226562 L 101.539062 79.34375 C 105.164062 82.976562 105.171875 88.875 101.554688 92.496094 Z M 180.570312 237.078125 L 101.738281 316.007812 C 95.972656 321.78125 86.597656 321.78125 80.828125 316.007812 L 61.335938 296.492188 C 55.574219 290.71875 55.574219 281.328125 61.335938 275.554688 L 140.164062 196.625 C 142.433594 194.355469 146.121094 194.355469 148.386719 196.625 L 153.609375 201.855469 C 156.144531 204.394531 160.253906 204.394531 162.789062 201.859375 C 165.324219 199.320312 165.324219 195.207031 162.792969 192.667969 L 161.855469 191.730469 L 166.097656 187.488281 C 167.890625 185.699219 170.796875 185.695312 172.585938 187.488281 L 174.335938 189.238281 C 174.339844 189.242188 174.339844 189.246094 174.34375 189.246094 L 187.941406 202.859375 L 187.941406 202.863281 L 189.699219 204.621094 C 191.484375 206.410156 191.488281 209.328125 189.679688 211.136719 L 185.460938 215.363281 L 178.003906 207.898438 C 175.472656 205.359375 171.359375 205.359375 168.828125 207.898438 C 166.292969 210.433594 166.292969 214.550781 168.828125 217.085938 L 180.570312 228.84375 C 182.835938 231.117188 182.835938 234.808594 180.570312 237.078125 Z M 250.550781 233.238281 C 250.550781 233.238281 250.554688 233.242188 250.554688 233.242188 L 250.570312 233.253906 C 250.761719 233.449219 250.980469 233.601562 251.191406 233.761719 C 251.304688 233.851562 251.40625 233.960938 251.527344 234.039062 C 252.621094 234.78125 253.886719 235.160156 255.15625 235.160156 C 256.042969 235.160156 256.925781 234.964844 257.753906 234.601562 C 274.769531 227.761719 294.121094 231.710938 307.097656 244.707031 C 316.601562 254.222656 321.269531 267.097656 320.378906 280.082031 L 306.882812 266.566406 C 298.199219 257.875 284.074219 257.867188 275.394531 266.550781 L 264.3125 277.644531 C 255.636719 286.332031 255.644531 300.476562 264.332031 309.175781 L 277.820312 322.679688 C 264.847656 323.570312 251.988281 318.894531 242.496094 309.390625 C 229.558594 296.4375 225.601562 277.144531 232.335938 260.136719 C 232.957031 259.828125 233.546875 259.441406 234.058594 258.925781 L 239.566406 253.375 C 242.09375 250.832031 242.082031 246.714844 239.539062 244.1875 C 237 241.65625 232.890625 241.667969 230.363281 244.214844 L 226.449219 248.15625 L 198.753906 220.425781 L 198.875 220.304688 C 204.746094 214.425781 205.546875 205.402344 201.351562 198.621094 L 208.664062 191.296875 Z M 312.4375 57.921875 L 319.097656 64.589844 L 300.03125 98.996094 L 286.574219 98.054688 C 286.5 98.046875 286.425781 98.0625 286.351562 98.058594 C 286.148438 98.050781 285.949219 98.0625 285.75 98.074219 C 285.5 98.089844 285.257812 98.105469 285.015625 98.144531 C 284.886719 98.167969 284.761719 98.207031 284.632812 98.234375 C 284.339844 98.304688 284.050781 98.382812 283.773438 98.492188 C 283.6875 98.523438 283.605469 98.566406 283.523438 98.605469 C 283.210938 98.742188 282.914062 98.894531 282.628906 99.074219 C 282.566406 99.117188 282.507812 99.164062 282.449219 99.207031 C 282.148438 99.414062 281.871094 99.640625 281.609375 99.894531 C 281.589844 99.910156 281.566406 99.925781 281.550781 99.941406 L 192.527344 189.078125 L 188.109375 184.652344 L 277.132812 95.515625 C 277.15625 95.492188 277.175781 95.457031 277.203125 95.429688 C 277.425781 95.195312 277.625 94.945312 277.8125 94.683594 C 277.878906 94.585938 277.953125 94.496094 278.015625 94.398438 C 278.171875 94.152344 278.296875 93.894531 278.417969 93.632812 C 278.476562 93.503906 278.542969 93.378906 278.59375 93.25 C 278.683594 93.007812 278.75 92.761719 278.8125 92.507812 C 278.851562 92.34375 278.898438 92.179688 278.929688 92.011719 C 278.964844 91.792969 278.976562 91.570312 278.992188 91.347656 C 279.007812 91.132812 279.019531 90.917969 279.011719 90.703125 C 279.007812 90.628906 279.023438 90.558594 279.019531 90.484375 L 278.078125 77.011719 Z M 110.714844 70.152344 L 97.21875 56.640625 C 110.1875 55.746094 123.046875 60.417969 132.550781 69.9375 C 145.347656 82.746094 149.34375 101.757812 142.902344 118.625 C 142.597656 118.839844 142.300781 119.070312 142.027344 119.34375 L 136.519531 124.890625 C 133.992188 127.4375 134.003906 131.550781 136.546875 134.082031 C 137.8125 135.34375 139.46875 135.972656 141.121094 135.972656 C 142.789062 135.972656 144.453125 135.332031 145.722656 134.054688 L 148.601562 131.160156 L 185.890625 168.496094 L 178.578125 175.820312 C 171.804688 171.621094 162.789062 172.421875 156.898438 178.316406 L 156.796875 178.417969 L 124.625 146.203125 C 122.835938 144.332031 120.035156 143.632812 117.5 144.664062 C 100.421875 151.601562 80.972656 147.660156 67.949219 134.625 C 58.457031 125.121094 53.792969 112.246094 54.679688 99.257812 L 68.164062 112.757812 C 72.511719 117.113281 78.21875 119.289062 83.925781 119.289062 C 89.621094 119.289062 95.316406 117.117188 99.652344 112.777344 L 110.730469 101.683594 C 119.410156 92.996094 119.402344 78.851562 110.714844 70.152344 Z M 110.714844 70.152344"/></g></svg>